<svg id="Layer_3" data-name="Layer 3" xmlns="http://www.w3.org/2000/svg" viewBox="0 0 490.19 305.47"><defs><style>.cls-1{fill:#cb444b;}.cls-2{fill:#fff;}</style></defs><polygon class="cls-1" points="50.72 0.55 0 0.55 41.09 130.55 87.87 130.55 50.72 0.55"/><polygon class="cls-1" points="149.79 130.55 165.11 77.96 177.11 130.55 149.79 130.55"/><polygon class="cls-1" points="55.83 175.02 100.51 175.02 118.47 238.77 137.34 175.02 183.04 175.02 141.57 305.47 96.94 305.47 55.83 175.02"/><polygon class="cls-2" points="173.79 0 199.32 130.55 242.94 130.55 219.07 0 173.79 0"/><polygon class="cls-2" points="208.64 175.02 250.79 175.02 260.6 229.23 273.17 175.02 310.38 175.02 279.23 305.45 235.19 305.45 208.64 175.02"/><polygon class="cls-2" points="320.77 130.34 283.57 130.34 313.36 0.04 351.06 0.04 380.34 129.91 342.94 130.34 332.47 81.53 320.77 130.34"/><polygon class="cls-2" points="353.66 175.02 390.38 175.02 402.27 230.32 412.77 175.02 454.13 175.02 428.08 305.4 383.57 305.4 353.66 175.02"/><polygon class="cls-2" points="420.6 130.34 463.49 130.34 490.19 0.02 445 0.02 420.6 130.34"/></svg>